<svg width="60" height="60" viewBox="0 0 60 60" fill="none" xmlns="http://www.w3.org/2000/svg">
<path d="M55.6406 52.9219V19.7344L37.5469 14.5312V52.9219H36.2344V4.6875H15.375V52.9688H14.1562V33.1406H2.85937V52.9688H2.8125V55.3594H57.1875V52.9688L55.6406 52.9219ZM47.625 22.2188H52.8281V28.0312H47.625V22.2188ZM47.625 29.5781H52.8281V35.3906H47.625V29.5781ZM47.625 37.5469H52.8281V43.3594H47.625V37.5469ZM47.625 45.5156H52.8281V51.3281H47.625V45.5156ZM39.6562 22.2188H44.8594V28.0312H39.6562V22.2188ZM39.6562 29.5781H44.8594V35.3906H39.6562V29.5781ZM39.6562 37.5469H44.8594V43.3594H39.6562V37.5469ZM39.6562 45.5156H44.8594V51.3281H39.6562V45.5156ZM9.23438 34.9688H12.6094V38.4844H9.23438V34.9688ZM9.23438 41.7656H12.6094V45.2812H9.23438V41.7656ZM9.23438 48.4219H12.6094V51.9375H9.23438V48.4219ZM4.40625 35.0625H7.78125V38.5781H4.40625V35.0625ZM4.40625 41.8125H7.78125V45.3281H4.40625V41.8125ZM4.40625 48.4688H7.78125V51.9844H4.40625V48.4688ZM27.6562 8.48438H32.8594V13.6875H27.6562V8.48438ZM27.6562 18.8906H32.8594V24.0938H27.6562V18.8906ZM27.6562 29.4844H32.8594V34.6875H27.6562V29.4844ZM18.7031 8.48438H23.9062V13.6875H18.7031V8.48438ZM18.7031 18.8906H23.9062V24.0938H18.7031V18.8906ZM18.7031 29.4844H23.9062V34.6875H18.7031V29.4844ZM20.5312 38.5781H30.9375V52.9688H28.3594V40.8281H23.1094V52.9219H20.4844L20.5312 38.5781Z" fill="#D4E22D"/>
</svg>
