<svg width="50" height="50" viewBox="0 0 50 50" fill="none" xmlns="http://www.w3.org/2000/svg">
<path d="M34.4728 43.9454C34.2804 43.9455 34.0899 43.9077 33.9121 43.8341C33.7343 43.7606 33.5728 43.6527 33.4367 43.5167L15.381 25.4601C15.1064 25.1854 14.9521 24.8129 14.9521 24.4244C14.9521 24.036 15.1064 23.6635 15.381 23.3888L33.4367 5.33216C33.5727 5.19609 33.7342 5.08814 33.9119 5.01448C34.0896 4.94081 34.2801 4.90288 34.4725 4.90283C34.6649 4.90279 34.8554 4.94063 35.0331 5.01421C35.2109 5.08779 35.3724 5.19566 35.5085 5.33167C35.6445 5.46767 35.7525 5.62914 35.8262 5.80686C35.8998 5.98458 35.9378 6.17507 35.9378 6.36745C35.9378 6.55984 35.9 6.75034 35.8264 6.9281C35.7528 7.10586 35.645 7.26738 35.509 7.40344L18.4885 24.424L35.509 41.4445C35.714 41.6493 35.8536 41.9104 35.9102 42.1946C35.9667 42.4789 35.9377 42.7735 35.8268 43.0413C35.7159 43.309 35.528 43.5378 35.287 43.6988C35.046 43.8597 34.7626 43.9456 34.4728 43.9454Z" fill="#D4E22D"/>
</svg>
