<svg width="50" height="50" viewBox="0 0 50 50" fill="none" xmlns="http://www.w3.org/2000/svg">
<path d="M15.5272 6.05456C15.7196 6.05448 15.9101 6.09229 16.0879 6.16585C16.2657 6.23941 16.4272 6.34727 16.5633 6.48328L34.619 24.5399C34.8936 24.8146 35.0479 25.1871 35.0479 25.5756C35.0479 25.964 34.8936 26.3365 34.619 26.6112L16.5633 44.6678C16.4273 44.8039 16.2658 44.9119 16.0881 44.9855C15.9104 45.0592 15.7199 45.0971 15.5275 45.0972C15.3351 45.0972 15.1446 45.0594 14.9669 44.9858C14.7891 44.9122 14.6276 44.8043 14.4915 44.6683C14.3555 44.5323 14.2475 44.3709 14.1738 44.1931C14.1002 44.0154 14.0622 43.8249 14.0622 43.6325C14.0622 43.4402 14.1 43.2497 14.1736 43.0719C14.2472 42.8941 14.355 42.7326 14.491 42.5966L31.5115 25.576L14.491 8.55554C14.286 8.35067 14.1464 8.08961 14.0898 7.80537C14.0333 7.52113 14.0623 7.22649 14.1732 6.95875C14.2841 6.691 14.472 6.46217 14.713 6.30122C14.954 6.14027 15.2374 6.05443 15.5272 6.05456Z" fill="#D4E22D"/>
</svg>
