<svg width="37" height="37" viewBox="0 0 37 37" fill="none" xmlns="http://www.w3.org/2000/svg">
<path d="M23.3201 9.2789L30.5684 16.8668C31.002 17.2859 31.2188 17.8568 31.2188 18.4855C31.2188 19.1143 31.002 19.6779 30.5684 20.1043L23.3201 27.7211C22.4602 28.6244 21.0582 28.6244 20.1982 27.7211C19.3383 26.8178 19.3383 25.358 20.1982 24.4547L23.6814 20.8125H7.9998C6.77129 20.8125 5.78125 19.7791 5.78125 18.5C5.78125 17.2209 6.77129 16.1875 7.99258 16.1875H23.6742L20.191 12.5453C19.3311 11.642 19.3311 10.1822 20.191 9.2789C21.0582 8.37558 22.4529 8.37558 23.3201 9.2789Z" fill="white"/>
</svg>
