<svg width="40" height="40" viewBox="0 0 40 40" fill="none" xmlns="http://www.w3.org/2000/svg">
<path d="M33.3332 18.3316H36.6666C36.6666 9.78165 30.2116 3.33331 21.6499 3.33331V6.66665C28.4199 6.66665 33.3332 11.5716 33.3332 18.3316Z" fill="#D4E22D"/>
<path d="M21.6666 13.3333C25.1716 13.3333 26.6666 14.8283 26.6666 18.3333H30C30 12.9583 27.0416 9.99999 21.6666 9.99999V13.3333ZM27.37 22.405C27.0497 22.1139 26.6289 21.9587 26.1963 21.972C25.7638 21.9854 25.3533 22.1664 25.0516 22.4767L21.0633 26.5783C20.1033 26.395 18.1733 25.7933 16.1866 23.8117C14.2 21.8233 13.5983 19.8883 13.42 18.935L17.5183 14.945C17.829 14.6435 18.0102 14.233 18.0236 13.8003C18.037 13.3676 17.8815 12.9467 17.59 12.6267L11.4316 5.85499C11.1401 5.53392 10.7348 5.33917 10.3019 5.31209C9.86903 5.28502 9.44265 5.42776 9.11332 5.70999L5.49665 8.81166C5.2085 9.10085 5.03651 9.48574 5.01331 9.89332C4.98831 10.31 4.51165 20.18 12.165 27.8367C18.8416 34.5117 27.205 35 29.5083 35C29.845 35 30.0516 34.99 30.1066 34.9867C30.5142 34.9638 30.8989 34.7911 31.1866 34.5017L34.2866 30.8833C34.5691 30.5542 34.7121 30.1279 34.6854 29.6951C34.6586 29.2622 34.4641 28.8568 34.1433 28.565L27.37 22.405Z" fill="#D4E22D"/>
</svg>
