<svg width="60" height="60" viewBox="0 0 60 60" fill="none" xmlns="http://www.w3.org/2000/svg">
<path d="M51.7404 31.0388L48.6583 14.6011C48.5719 14.1418 48.3277 13.7272 47.968 13.4288C47.6083 13.1305 47.1557 12.9671 46.6883 12.967H40.57L39.2063 5.69481C39.1198 5.23556 38.8756 4.82095 38.516 4.52259C38.1563 4.22424 37.7037 4.06089 37.2364 4.06077H22.7637C22.2963 4.06089 21.8437 4.22424 21.4841 4.52259C21.1244 4.82095 20.8802 5.23556 20.7937 5.69481L19.4303 12.967H13.3116C12.8443 12.9671 12.3917 13.1305 12.032 13.4288C11.6723 13.7272 11.4281 14.1418 11.3417 14.6011L8.25962 31.0388C6.89717 31.4113 5.6944 32.2202 4.8355 33.3415C3.97661 34.4628 3.50895 35.8348 3.50415 37.2472V46.1426C3.50413 46.4057 3.55593 46.6663 3.65662 46.9094C3.7573 47.1525 3.90489 47.3734 4.09095 47.5594C4.27701 47.7455 4.4979 47.8931 4.741 47.9938C4.98411 48.0945 5.24467 48.1463 5.5078 48.1463H6.84396V50.0391C6.84396 51.6039 7.46558 53.1046 8.57208 54.2111C9.67857 55.3176 11.1793 55.9392 12.7441 55.9392C14.3089 55.9392 15.8097 55.3176 16.9162 54.2111C18.0227 53.1046 18.6443 51.6039 18.6443 50.0391V48.1463H41.3557V50.0391C41.3557 51.6039 41.9773 53.1046 43.0838 54.2111C44.1903 55.3176 45.691 55.9392 47.2558 55.9392C48.8207 55.9392 50.3214 55.3176 51.4279 54.2111C52.5344 53.1046 53.156 51.6039 53.156 50.0391V48.1463H54.4922C54.7553 48.1463 55.0159 48.0945 55.259 47.9938C55.5021 47.8931 55.723 47.7455 55.909 47.5594C56.0951 47.3734 56.2427 47.1525 56.3434 46.9094C56.4441 46.6663 56.4959 46.4057 56.4959 46.1426V37.2472C56.4911 35.8348 56.0234 34.4628 55.1645 33.3415C54.3056 32.2202 53.1028 31.4113 51.7404 31.0388ZM14.4143 42.8022C13.7538 42.8022 13.108 42.6063 12.5588 42.2393C12.0096 41.8723 11.5815 41.3507 11.3287 40.7405C11.0759 40.1302 11.0098 39.4586 11.1386 38.8108C11.2675 38.1629 11.5856 37.5678 12.0527 37.1007C12.5198 36.6336 13.1149 36.3155 13.7627 36.1867C14.4106 36.0578 15.0821 36.124 15.6924 36.3767C16.3027 36.6295 16.8243 37.0576 17.1913 37.6068C17.5583 38.1561 17.7542 38.8018 17.7542 39.4623C17.7542 39.9009 17.6678 40.3353 17.5 40.7405C17.3321 41.1457 17.0861 41.5139 16.776 41.824C16.4658 42.1341 16.0977 42.3801 15.6924 42.548C15.2872 42.7158 14.8529 42.8022 14.4143 42.8022ZM12.3864 30.7795L14.975 16.9744H45.0249L47.6135 30.7795H12.3864ZM45.5862 42.8022C44.9256 42.8022 44.2799 42.6063 43.7307 42.2393C43.1814 41.8723 42.7534 41.3507 42.5006 40.7405C42.2478 40.1302 42.1817 39.4586 42.3105 38.8108C42.4394 38.1629 42.7575 37.5678 43.2246 37.1007C43.6917 36.6336 44.2868 36.3155 44.9346 36.1867C45.5825 36.0578 46.254 36.124 46.8643 36.3767C47.4746 36.6295 47.9962 37.0576 48.3632 37.6068C48.7302 38.1561 48.926 38.8018 48.926 39.4623C48.926 39.9009 48.8397 40.3353 48.6718 40.7405C48.504 41.1457 48.258 41.5139 47.9478 41.824C47.6377 42.1341 47.2695 42.3801 46.8643 42.548C46.4591 42.7158 46.0248 42.8022 45.5862 42.8022Z" fill="#D4E22D"/>
</svg>
