<svg width="29" height="29" viewBox="0 0 29 29" fill="none" xmlns="http://www.w3.org/2000/svg">
<path d="M12.0833 26.5834V21.75C12.0833 21.1091 12.3379 20.4944 12.7911 20.0412C13.2443 19.588 13.859 19.3334 14.5 19.3334C15.1409 19.3334 15.7556 19.588 16.2088 20.0412C16.662 20.4944 16.9166 21.1091 16.9166 21.75V26.5834H21.75V14.5C21.7499 14.2915 21.6959 14.0866 21.5932 13.9051C21.4905 13.7237 21.3426 13.5719 21.1639 13.4645L15.7083 10.1911V7.25002H18.125V4.83335H15.7083V2.41669H13.2916V4.83335H10.875V7.25002H13.2916V10.1911L7.836 13.4645C7.65728 13.5719 7.50938 13.7237 7.40668 13.9051C7.30399 14.0866 7.25 14.2915 7.24996 14.5V26.5834H12.0833ZM3.62496 26.5834H6.04163V16.7741L3.08483 18.2531C2.88398 18.3532 2.71502 18.5073 2.59697 18.6981C2.47893 18.889 2.41647 19.109 2.41663 19.3334V25.375C2.41663 25.6955 2.54393 26.0028 2.77054 26.2294C2.99715 26.456 3.30449 26.5834 3.62496 26.5834ZM25.9151 18.2519L22.9583 16.7741V26.5834H25.375C25.6954 26.5834 26.0028 26.456 26.2294 26.2294C26.456 26.0028 26.5833 25.6955 26.5833 25.375V19.3334C26.5833 18.8754 26.3247 18.4573 25.9151 18.2519Z" fill="#D4E22D"/>
</svg>
