<svg width="59" height="59" viewBox="0 0 59 59" fill="none" xmlns="http://www.w3.org/2000/svg">
<path fill-rule="evenodd" clip-rule="evenodd" d="M50.0757 25.4204C52.9227 21.6559 56.5416 15.9836 56.5416 11.4722C56.5416 6.49399 52.139 2.45834 46.7083 2.45834C41.2775 2.45834 36.8749 6.49399 36.8749 11.4722C36.8749 15.9836 40.4938 21.6559 43.3408 25.4204C45.0653 27.7005 48.3512 27.7005 50.0757 25.4204ZM46.7083 14.75C48.066 14.75 49.1666 13.6494 49.1666 12.2917C49.1666 10.934 48.066 9.83334 46.7083 9.83334C45.3505 9.83334 44.2499 10.934 44.2499 12.2917C44.2499 13.6494 45.3505 14.75 46.7083 14.75ZM37.384 21.6159C38.344 22.5759 38.344 24.1324 37.384 25.0925L27.5507 34.9258C26.5907 35.8858 25.0341 35.8858 24.0741 34.9258C23.1141 33.9658 23.1141 32.4092 24.0741 31.4492L33.9075 21.6159C34.8674 20.6558 36.4241 20.6558 37.384 21.6159ZM22.1249 40.9723C22.1249 45.4836 18.5061 51.156 15.6591 54.9204C13.9346 57.2005 10.6486 57.2005 8.92404 54.9204C6.07707 51.156 2.45825 45.4836 2.45825 40.9723C2.45825 35.9939 6.86078 31.9583 12.2916 31.9583C17.7224 31.9583 22.1249 35.9939 22.1249 40.9723ZM14.7499 41.7917C14.7499 43.1494 13.6493 44.25 12.2916 44.25C10.9339 44.25 9.83325 43.1494 9.83325 41.7917C9.83325 40.4339 10.9339 39.3333 12.2916 39.3333C13.6493 39.3333 14.7499 40.4339 14.7499 41.7917Z" fill="#D4E22D"/>
</svg>
