<svg width="24" height="24" viewBox="0 0 24 24" fill="none" xmlns="http://www.w3.org/2000/svg">
<g clip-path="url(#clip0_9_748)">
<path d="M11.7797 0.351753C11.7 0.408003 11.5875 0.708004 11.3157 1.54707L10.95 2.67207H9.81565C9.18753 2.67207 8.62503 2.69082 8.5594 2.71894C8.37659 2.78925 8.27347 2.97207 8.32503 3.15019C8.36253 3.27675 8.53597 3.42207 9.31409 3.98457C9.83909 4.35957 10.2657 4.69707 10.2657 4.72988C10.2657 4.76738 10.1063 5.27832 9.91409 5.86894C9.67503 6.59082 9.56722 6.9705 9.59065 7.05019C9.63753 7.24707 9.78753 7.33613 10.036 7.31738C10.0735 7.31738 10.5282 7.008 11.0438 6.633C11.5547 6.258 12 5.96269 12.0282 5.97207C12.0563 5.98144 12.4875 6.28613 12.9844 6.65175C13.486 7.01738 13.9266 7.31738 13.9641 7.31738C14.2125 7.33613 14.3625 7.24707 14.4094 7.05019C14.4328 6.9705 14.325 6.59082 14.086 5.86894C13.8938 5.27832 13.7344 4.76738 13.7344 4.72988C13.7391 4.69707 14.1657 4.35957 14.686 3.98457C15.4688 3.41738 15.6375 3.28144 15.675 3.15488C15.7266 2.97207 15.6235 2.78925 15.4407 2.71894C15.375 2.69082 14.8125 2.67207 14.1844 2.67207H13.05L12.6844 1.54707C12.3047 0.370503 12.2578 0.281441 12 0.281441C11.9344 0.281441 11.836 0.314253 11.7797 0.351753Z" fill="#D4E22D"/>
<path d="M2.6203 3.04235C2.51249 3.13141 2.5078 3.15485 2.47967 4.1111C2.46092 4.64547 2.44686 5.19391 2.44217 5.32516L2.43749 5.55954L1.34999 5.87829C0.749985 6.05172 0.210923 6.22516 0.154673 6.26266C0.0187354 6.35173 -0.0234521 6.52985 0.0468604 6.70329C0.112485 6.85798 0.17811 6.8861 1.60311 7.38766L2.39061 7.66423L2.36717 8.22673C2.35311 8.5361 2.33436 9.07048 2.3203 9.41266L2.29686 10.0361L2.4328 10.1767C2.5828 10.3267 2.73749 10.3502 2.8828 10.247C2.93436 10.2095 3.28124 9.77829 3.65624 9.2861C4.03124 8.7986 4.35467 8.39548 4.37811 8.39079C4.40155 8.39079 4.88905 8.55954 5.46561 8.76579C6.03749 8.97204 6.56717 9.14079 6.64217 9.14079C6.72655 9.14079 6.8203 9.0986 6.88124 9.03298C7.07811 8.82204 7.03124 8.71423 6.32811 7.68766C5.96717 7.16266 5.67186 6.72204 5.67186 6.70798C5.67186 6.68922 5.99061 6.26735 6.37499 5.77047C6.76405 5.26891 7.09217 4.81423 7.10624 4.75329C7.13905 4.63141 7.02186 4.38298 6.91405 4.34079C6.77342 4.28923 6.66092 4.31266 5.79842 4.56579C5.32967 4.70641 4.83749 4.85173 4.70155 4.88923L4.46249 4.95954L3.83436 4.04079C3.49217 3.53454 3.17342 3.07985 3.13124 3.03766C3.01874 2.92516 2.75624 2.92985 2.6203 3.04235Z" fill="#D4E22D"/>
<path d="M20.8735 3.03749C20.8266 3.07968 20.5079 3.53436 20.1657 4.04061L19.5375 4.95936L19.2985 4.88905C19.1625 4.85155 18.6704 4.70624 18.2016 4.56561C17.3391 4.31249 17.2266 4.28905 17.086 4.34061C16.9782 4.3828 16.861 4.63124 16.8938 4.75311C16.9079 4.81405 17.236 5.26874 17.625 5.7703C18.0094 6.26718 18.3282 6.68905 18.3282 6.7078C18.3282 6.72186 18.0329 7.16249 17.6719 7.68749C16.9594 8.72343 16.9125 8.84061 17.1235 9.03749C17.1844 9.09374 17.2922 9.14061 17.3672 9.14061C17.4375 9.14061 17.9672 8.97186 18.5438 8.76561C19.1157 8.55936 19.6032 8.39061 19.6266 8.39061C19.6454 8.3953 19.9688 8.79843 20.3438 9.28593C20.7188 9.77811 21.0657 10.2094 21.1172 10.2469C21.2625 10.35 21.4172 10.3266 21.5672 10.1719L21.7079 10.0359L21.6797 9.4828C21.6704 9.17811 21.6469 8.64374 21.6329 8.29686L21.6094 7.66405L22.3969 7.38749C23.8219 6.88593 23.8875 6.8578 23.9532 6.70311C24.0282 6.52499 23.9813 6.34686 23.8407 6.2578C23.7797 6.21561 23.2454 6.04686 22.6547 5.87343L21.5766 5.56405L21.5438 5.00155C21.5297 4.69218 21.5157 4.17655 21.5157 3.8578C21.5157 3.09843 21.45 2.95311 21.0891 2.95311C21.0141 2.95311 20.9157 2.99061 20.8735 3.03749Z" fill="#D4E22D"/>
<path d="M10.875 9.8625C9.75004 10.0641 8.80317 10.4672 7.87035 11.1375C7.37348 11.4984 6.55785 12.3422 6.21567 12.8625C4.50942 15.4453 4.65942 18.7453 6.59535 21.1406C6.71723 21.2953 6.83442 21.4219 6.84848 21.4219C6.86254 21.4219 6.90004 21.3656 6.93285 21.2906C6.96567 21.2203 7.12504 20.9625 7.2891 20.7141C7.9641 19.7016 8.98129 18.9047 10.0922 18.5203L10.5469 18.3656L10.3266 18.225C9.37504 17.6203 8.84067 16.3312 9.06567 15.1875C9.45473 13.2469 11.55 12.1922 13.3032 13.0594C14.8782 13.8328 15.4594 15.7547 14.5735 17.2641C14.3579 17.6297 13.9875 18.0281 13.6735 18.225L13.4532 18.3656L13.9079 18.5203C14.7422 18.8109 15.6657 19.4297 16.2282 20.0812C16.5141 20.4141 16.9547 21.0516 17.0672 21.2953C17.1 21.3656 17.1422 21.4172 17.161 21.4125C17.236 21.3844 17.7329 20.7281 17.9579 20.3578C19.3641 18.0422 19.2985 15.1594 17.7844 12.8625C17.3954 12.2719 16.4719 11.3531 15.8625 10.9547C15.1172 10.4625 14.2829 10.1062 13.4063 9.91406C12.9282 9.80625 11.3625 9.77812 10.875 9.8625Z" fill="#D4E22D"/>
<path d="M11.4327 13.5844C10.1859 13.9125 9.46867 15.2531 9.88586 16.4672C10.2468 17.5172 11.3484 18.1547 12.4077 17.9344C13.8796 17.6297 14.6437 16.1156 14.0109 14.7797C13.6546 14.025 12.8296 13.5047 11.9999 13.5047C11.8593 13.5047 11.6015 13.5422 11.4327 13.5844Z" fill="#D4E22D"/>
<path d="M11.1421 19.0079C9.58589 19.3032 8.32495 20.2501 7.60776 21.661L7.43433 21.9985L7.62183 22.1626C8.12808 22.6032 9.0562 23.1142 9.79683 23.3626C10.5328 23.6063 11.0671 23.6907 11.9531 23.6907C12.8718 23.6954 13.4015 23.6204 14.1328 23.3813C14.9156 23.1282 15.8718 22.6079 16.3781 22.1626L16.5609 22.0032L16.3406 21.5813C15.7218 20.3767 14.5265 19.4345 13.1953 19.097C12.5953 18.947 11.6859 18.9048 11.1421 19.0079Z" fill="#D4E22D"/>
</g>
<defs>
<clipPath id="clip0_9_748">
<rect width="24" height="24" fill="white"/>
</clipPath>
</defs>
</svg>
