<svg width="209" height="47" viewBox="0 0 209 47" fill="none" xmlns="http://www.w3.org/2000/svg">
<path d="M25.1757 14.6755C25.1757 14.6755 4.26898 11.3178 3.28377 11.4832C2.29855 11.6486 1.14942 12.2486 0.492608 13.0762C-0.164203 13.9043 -0.164203 14.1251 0.492608 14.3447C1.14942 14.5648 20.0313 22.8201 20.0313 22.8201L13.3554 33.3877H7.82755C7.82755 33.3877 6.18553 33.2228 5.6932 33.9934C5.20031 34.7639 4.1062 36.1396 4.1062 36.1396C4.1062 36.1396 3.28547 36.9113 4.59909 37.1303C5.91271 37.351 11.8234 38.0663 11.8234 38.0663L10.7832 39.8275C10.7832 39.8275 10.1264 40.9283 10.6193 41.1485C11.1116 41.3681 11.8779 41.3133 12.2613 40.6528C12.6447 39.9929 13.4655 39.2218 13.4655 39.2218L16.365 45.1666C16.365 45.1666 16.8028 46.0467 17.6786 45.1666C18.5543 44.2854 18.8277 43.7898 18.8277 43.7898C18.8277 43.7898 19.5946 42.6342 19.0466 41.258C18.4993 39.8834 17.1857 35.7558 17.1857 35.7558C17.1857 35.7558 33.3859 17.3179 36.451 10.549C39.515 3.77998 36.3421 2.45847 32.2367 5.92623C28.1314 9.39398 25.1757 14.6755 25.1757 14.6755Z" fill="#D4E22D"/>
<path d="M26.7627 27.7188L32.455 20.5637C32.455 20.5637 40.6096 36.3044 41.2114 37.3504C41.8137 38.3953 41.5942 39.9923 41.2114 40.9271C40.8285 41.8619 40.2273 43.4589 38.8031 41.587C37.3806 39.7162 26.7627 27.7188 26.7627 27.7188Z" fill="#D4E22D"/>
<path d="M56.3415 46.3293V0.719499C56.3415 0.349064 56.0412 0.0487671 55.6707 0.0487671C55.3003 0.0487671 55 0.349062 55 0.719497V46.3293C55 46.6997 55.3003 47 55.6707 47C56.0412 47 56.3415 46.6997 56.3415 46.3293Z" fill="white"/>
<path d="M68.5347 29.7579L65.7317 15.2348C66.4918 14.9482 67.1649 14.8049 67.7508 14.8049C68.4159 14.8049 68.8989 14.9522 69.1998 15.2468C69.5007 15.5414 69.7145 16.0948 69.8412 16.9069L70.8389 23.0697C71.1398 24.9169 71.3298 26.2068 71.409 26.9393C71.4882 27.6718 71.5396 28.054 71.5634 28.0859C71.5871 28.1177 71.6386 28.1337 71.7178 28.1337L73.6894 15.3304C74.2753 15.2189 75.0909 15.1632 76.1361 15.1632C77.1813 15.1632 77.9889 15.2189 78.559 15.3304L80.3644 27.8231C80.3802 27.9664 80.4079 28.054 80.4475 28.0859C80.4871 28.1177 80.5465 28.1337 80.6257 28.1337C80.7682 26.6368 81.0057 24.9408 81.3383 23.0458L82.6685 15.0199C83.1278 14.9243 83.6583 14.8765 84.2601 14.8765C84.9885 14.8765 85.6299 14.9641 86.1842 15.1393L86.3504 15.3543L83.2149 31.3106C82.1855 31.4221 81.2195 31.4778 80.3168 31.4778C79.4142 31.4778 78.7728 31.3663 78.3927 31.1434C78.0127 30.9204 77.7672 30.4586 77.6564 29.7579L76.8487 24.5745C76.5637 22.6954 76.334 20.8482 76.1598 19.0328H75.9936C75.8194 20.5775 75.5581 22.4247 75.2097 24.5745L74.1407 31.3106C73.0639 31.4221 72.086 31.4778 71.2071 31.4778C70.3282 31.4778 69.6987 31.3663 69.3186 31.1434C68.9385 30.9204 68.6772 30.4586 68.5347 29.7579ZM92.004 27.9187C91.5764 27.9187 91.2597 27.9107 91.0538 27.8948L90.0324 31.3584C89.6523 31.4539 89.1218 31.5017 88.4408 31.5017C87.6807 31.5017 87.0631 31.4141 86.588 31.2389L86.4692 31.0478L91.6952 15.0199C92.3128 14.9243 93.0333 14.8765 93.8568 14.8765C94.7912 14.8765 95.5355 14.9323 96.0897 15.0437L101.221 31.0956C100.666 31.3982 100.041 31.5495 99.3441 31.5495C98.5206 31.5495 97.9426 31.4061 97.61 31.1195C97.2774 30.8329 96.9924 30.2835 96.7548 29.4713L96.3035 27.8948C96.0976 27.9107 95.7888 27.9187 95.3771 27.9187H92.004ZM91.9327 24.9089L92.8829 24.8851H94.617C94.6961 24.8851 94.8347 24.889 95.0327 24.897C95.2306 24.905 95.3771 24.9089 95.4721 24.9089L95.0683 23.428C94.6882 22.0903 94.2527 20.4501 93.7618 18.5073H93.6193C93.4926 19.1921 93.1125 20.7128 92.4791 23.0697L91.9327 24.9089ZM104.57 29.7579L101.767 15.2348C102.527 14.9482 103.2 14.8049 103.786 14.8049C104.451 14.8049 104.934 14.9522 105.235 15.2468C105.536 15.5414 105.75 16.0948 105.877 16.9069L106.874 23.0697C107.175 24.9169 107.365 26.2068 107.444 26.9393C107.523 27.6718 107.575 28.054 107.599 28.0859C107.622 28.1177 107.674 28.1337 107.753 28.1337L109.725 15.3304C110.311 15.2189 111.126 15.1632 112.171 15.1632C113.217 15.1632 114.024 15.2189 114.594 15.3304L116.4 27.8231C116.416 27.9664 116.443 28.054 116.483 28.0859C116.522 28.1177 116.582 28.1337 116.661 28.1337C116.803 26.6368 117.041 24.9408 117.374 23.0458L118.704 15.0199C119.163 14.9243 119.694 14.8765 120.295 14.8765C121.024 14.8765 121.665 14.9641 122.219 15.1393L122.386 15.3543L119.25 31.3106C118.221 31.4221 117.255 31.4778 116.352 31.4778C115.449 31.4778 114.808 31.3663 114.428 31.1434C114.048 30.9204 113.803 30.4586 113.692 29.7579L112.884 24.5745C112.599 22.6954 112.369 20.8482 112.195 19.0328H112.029C111.855 20.5775 111.593 22.4247 111.245 24.5745L110.176 31.3106C109.099 31.4221 108.121 31.4778 107.242 31.4778C106.363 31.4778 105.734 31.3663 105.354 31.1434C104.974 30.9204 104.713 30.4586 104.57 29.7579ZM136.045 18.1729L136.068 19.9405V31.3345C135.53 31.43 134.888 31.4778 134.144 31.4778C133.4 31.4778 132.774 31.43 132.268 31.3345V18.1729L130.747 18.1968H128.301C128.206 17.735 128.158 17.2055 128.158 16.6083C128.158 16.0111 128.206 15.4817 128.301 15.0199H140.059C140.186 15.4339 140.249 15.9355 140.249 16.5247C140.249 17.1139 140.091 17.5399 139.774 17.8027C139.457 18.0654 138.95 18.1968 138.254 18.1968H137.565L136.068 18.1729H136.045ZM153.646 20.0599C153.646 20.5855 153.567 21.0831 153.409 21.5529C153.251 22.0226 153.041 22.4446 152.779 22.8189C152.518 23.1931 152.209 23.5195 151.853 23.7982C151.497 24.0769 151.128 24.2879 150.748 24.4312C151.572 24.7338 152.182 25.4663 152.578 26.6288L153.29 28.6592C153.559 29.4554 153.955 30.0446 154.478 30.4268C154.24 30.7453 153.884 31.012 153.409 31.227C152.934 31.442 152.411 31.5495 151.841 31.5495C151.271 31.5495 150.828 31.3862 150.511 31.0598C150.194 30.7333 149.901 30.164 149.632 29.3519L148.777 26.8438C148.603 26.366 148.369 25.9998 148.076 25.745C147.783 25.4902 147.344 25.3628 146.758 25.3628H145.784V31.3345C145.277 31.43 144.644 31.4778 143.883 31.4778C143.123 31.4778 142.498 31.43 142.007 31.3345V15.1393L142.173 14.9721C143.551 14.9402 144.711 14.9163 145.653 14.9004C146.595 14.8845 147.336 14.8765 147.874 14.8765C148.745 14.8765 149.537 14.984 150.25 15.199C150.962 15.414 151.568 15.7365 152.067 16.1664C152.566 16.5964 152.954 17.1378 153.231 17.7907C153.508 18.4436 153.646 19.2 153.646 20.0599ZM145.784 17.7429V22.4247C146.496 22.4247 147.106 22.4128 147.613 22.3889C148.12 22.365 148.527 22.2695 148.836 22.1023C149.145 21.9351 149.379 21.7002 149.537 21.3976C149.695 21.095 149.774 20.6571 149.774 20.0838C149.774 18.5392 149.03 17.7668 147.542 17.7668H146.556C146.556 17.7668 146.298 17.7589 145.784 17.7429ZM160.559 27.9187C160.131 27.9187 159.815 27.9107 159.609 27.8948L158.587 31.3584C158.207 31.4539 157.677 31.5017 156.996 31.5017C156.236 31.5017 155.618 31.4141 155.143 31.2389L155.024 31.0478L160.25 15.0199C160.868 14.9243 161.588 14.8765 162.412 14.8765C163.346 14.8765 164.09 14.9323 164.645 15.0437L169.776 31.0956C169.221 31.3982 168.596 31.5495 167.899 31.5495C167.076 31.5495 166.498 31.4061 166.165 31.1195C165.832 30.8329 165.547 30.2835 165.31 29.4713L164.858 27.8948C164.653 27.9107 164.344 27.9187 163.932 27.9187H160.559ZM160.488 24.9089L161.438 24.8851H163.172C163.251 24.8851 163.39 24.889 163.588 24.897C163.786 24.905 163.932 24.9089 164.027 24.9089L163.623 23.428C163.243 22.0903 162.808 20.4501 162.317 18.5073H162.174C162.048 19.1921 161.667 20.7128 161.034 23.0697L160.488 24.9089ZM176.308 28.1337L179.42 15.0199C179.8 14.9243 180.291 14.8765 180.893 14.8765C181.716 14.8765 182.365 14.9641 182.841 15.1393L182.983 15.3304L178.541 31.3345C177.638 31.43 176.732 31.4778 175.821 31.4778C174.911 31.4778 174.253 31.3623 173.85 31.1314C173.446 30.9005 173.141 30.4427 172.935 29.7579L168.992 15.3543C169.847 14.988 170.552 14.8049 171.106 14.8049C171.771 14.8049 172.262 14.9562 172.579 15.2587C172.895 15.5613 173.141 16.039 173.315 16.6919L175.144 23.4996C175.429 24.5666 175.73 26.0157 176.047 27.847C176.078 28.0381 176.166 28.1337 176.308 28.1337ZM188.708 26.5094L188.684 28.2292V28.2531C189.413 28.2212 189.998 28.2053 190.442 28.2053H195.953C195.953 28.7945 195.929 29.2484 195.882 29.5669C195.692 30.793 194.884 31.4061 193.459 31.4061H187.14C186.459 31.4061 185.925 31.2071 185.537 30.809C185.149 30.4109 184.955 29.8694 184.955 29.1847V15.1871L185.121 15.0199H195.359C195.454 15.4817 195.502 15.9833 195.502 16.5247C195.502 17.0661 195.391 17.6315 195.169 18.2207H188.684L188.708 19.9405V21.6126C189.12 21.5967 189.658 21.5887 190.323 21.5887H193.958C194.1 22.0346 194.171 22.5442 194.171 23.1174C194.171 23.6907 194.1 24.2162 193.958 24.694H188.708V26.5094ZM204.599 28.1098H208.709C208.709 28.7467 208.669 29.2922 208.59 29.746C208.511 30.1999 208.258 30.59 207.83 30.9165C207.402 31.2429 206.84 31.4061 206.144 31.4061H200.775C200.094 31.4061 199.556 31.2071 199.16 30.809C198.764 30.4109 198.566 29.8694 198.566 29.1847V15.0199L198.732 14.8526H200.134C201.622 14.8526 202.367 15.6648 202.367 17.2891V28.2053C203.063 28.1416 203.808 28.1098 204.599 28.1098Z" fill="#D4E22D"/>
</svg>
