<svg width="32" height="32" viewBox="0 0 32 32" fill="none" xmlns="http://www.w3.org/2000/svg">
<g clip-path="url(#clip0_142_207)">
<path d="M15.1975 0.00266718C12.6308 0.0373338 7.10813 0.458667 4.01879 3.28933C1.72546 5.56933 0.924127 8.93067 0.830794 13.0933C0.750794 17.24 0.657461 25.0267 8.16413 27.148V30.3747C8.16413 30.3747 8.11346 31.668 8.96679 31.9347C10.0201 32.268 10.6201 31.2693 11.6201 30.2027L13.4868 28.096C18.6201 28.5227 22.5535 27.5373 23.0068 27.3907C24.0468 27.0573 29.9148 26.3093 30.8748 18.5213C31.8615 10.48 30.3948 5.41333 27.7548 3.12L27.7415 3.11733C26.9415 2.384 23.7415 0.0506672 16.5815 0.0240005C16.5815 0.0240005 16.0535 -0.00933282 15.1975 0.00266718ZM15.2868 2.26533C16.0135 2.26133 16.4601 2.292 16.4601 2.292C22.5135 2.30533 25.4081 4.132 26.0881 4.74533C28.3148 6.65067 29.4588 11.22 28.6215 17.9347C27.8215 24.4413 23.0615 24.8547 22.1815 25.1347C21.8081 25.2547 18.3415 26.108 13.9788 25.828C13.9788 25.828 10.7268 29.7493 9.71346 30.7627C9.55346 30.936 9.36679 30.9893 9.24679 30.9627C9.07346 30.9227 9.02013 30.7093 9.03346 30.416L9.06013 25.0573C2.69879 23.2973 3.07213 16.6547 3.13879 13.188C3.21879 9.72133 3.87213 6.87867 5.80546 4.95867C8.41479 2.59867 13.1055 2.27867 15.2855 2.26533H15.2868ZM15.7668 5.732C15.7143 5.73182 15.6623 5.74201 15.6138 5.76196C15.5653 5.78192 15.5212 5.81126 15.484 5.84829C15.4469 5.88533 15.4174 5.92934 15.3973 5.97779C15.3772 6.02625 15.3668 6.0782 15.3668 6.13067C15.3668 6.23675 15.4089 6.3385 15.484 6.41351C15.559 6.48852 15.6607 6.53067 15.7668 6.53067C16.7581 6.51176 17.7432 6.68936 18.6655 7.05323C19.5878 7.4171 20.4288 7.96002 21.1401 8.65067C22.5935 10.064 23.3015 11.9573 23.3281 14.4373C23.3281 14.4899 23.3385 14.5419 23.3586 14.5904C23.3787 14.6389 23.4081 14.683 23.4453 14.7202C23.4824 14.7573 23.5265 14.7868 23.5751 14.8069C23.6236 14.827 23.6756 14.8373 23.7281 14.8373V14.8253C23.8342 14.8253 23.936 14.7832 24.011 14.7082C24.086 14.6332 24.1281 14.5314 24.1281 14.4253C24.1776 13.259 23.9891 12.0949 23.5742 11.0038C23.1593 9.91267 22.5267 8.91743 21.7148 8.07867C20.1281 6.532 18.1268 5.732 15.7668 5.732ZM10.4948 6.652C10.2112 6.61159 9.92235 6.66796 9.67479 6.812H9.65879C9.11213 7.132 8.60813 7.532 8.12813 8.06533C7.76813 8.492 7.56679 8.91733 7.51346 9.33067C7.48209 9.57308 7.50486 9.81944 7.58013 10.052L7.60679 10.0653C8.01777 11.2735 8.55402 12.4354 9.2068 13.532C10.0529 15.0678 11.0925 16.4887 12.3001 17.76L12.3401 17.8133L12.3935 17.8533L12.4335 17.8933L12.4735 17.9333C13.7498 19.144 15.1745 20.1879 16.7135 21.04C18.4735 22 19.5428 22.4533 20.1828 22.64V22.6533C20.3695 22.7067 20.5401 22.7333 20.7135 22.7333C21.2598 22.6935 21.777 22.4719 22.1828 22.104C22.7028 21.6373 23.1161 21.12 23.4228 20.5733V20.56C23.7295 19.9867 23.6228 19.4387 23.1828 19.0653C22.296 18.2896 21.336 17.6019 20.3161 17.012C19.6361 16.6387 18.9428 16.8653 18.6628 17.2387L18.0628 17.9973C17.7561 18.3707 17.1961 18.3173 17.1961 18.3173L17.1801 18.3307C13.0201 17.264 11.9135 13.052 11.9135 13.052C11.9135 13.052 11.8601 12.4787 12.2468 12.1853L12.9935 11.5853C13.3535 11.292 13.6068 10.5987 13.2201 9.91867C12.631 8.89831 11.9433 7.93817 11.1668 7.052C10.9979 6.84253 10.7595 6.7006 10.4948 6.652ZM16.4588 7.83867C16.3527 7.83902 16.2511 7.8815 16.1763 7.95677C16.1016 8.03203 16.0598 8.13391 16.0601 8.24C16.0605 8.34609 16.103 8.44769 16.1782 8.52245C16.2535 8.59722 16.3554 8.63902 16.4615 8.63867C17.7958 8.66183 19.0665 9.21325 19.9948 10.172C20.4136 10.634 20.7356 11.1753 20.9417 11.7638C21.1478 12.3524 21.2339 12.9763 21.1948 13.5987C21.1951 13.7045 21.2374 13.8059 21.3124 13.8806C21.3874 13.9554 21.4889 13.9973 21.5948 13.9973L21.6081 14.0133C21.6608 14.0133 21.7129 14.0029 21.7615 13.9828C21.8101 13.9626 21.8543 13.933 21.8914 13.8957C21.9286 13.8584 21.958 13.8142 21.9781 13.7655C21.9981 13.7168 22.0083 13.6646 22.0081 13.612C22.0481 12.0253 21.5548 10.692 20.5815 9.62533C19.6081 8.55867 18.2481 7.95867 16.5148 7.83867C16.4962 7.83736 16.4774 7.83736 16.4588 7.83867ZM17.1121 9.99733C17.0586 9.99576 17.0054 10.0047 16.9553 10.0237C16.9053 10.0428 16.8595 10.0714 16.8206 10.1082C16.7816 10.1449 16.7503 10.1889 16.7284 10.2377C16.7065 10.2865 16.6944 10.3392 16.6928 10.3927C16.6912 10.4462 16.7002 10.4994 16.7192 10.5495C16.7382 10.5995 16.7669 10.6453 16.8036 10.6842C16.8403 10.7231 16.8843 10.7545 16.9332 10.7764C16.982 10.7983 17.0346 10.8104 17.0881 10.812C18.4081 10.8787 19.0481 11.5453 19.1281 12.9187C19.1316 13.0224 19.1753 13.1208 19.2499 13.1929C19.3245 13.2651 19.4243 13.3054 19.5281 13.3053H19.5415C19.5952 13.3037 19.648 13.2912 19.6968 13.2686C19.7456 13.2461 19.7893 13.214 19.8254 13.1741C19.8615 13.1343 19.8892 13.0876 19.9069 13.0369C19.9245 12.9861 19.9317 12.9323 19.9281 12.8787C19.8348 11.092 18.8615 10.0907 17.1281 9.99733C17.1228 9.99723 17.1175 9.99723 17.1121 9.99733Z" fill="#D4E22D"/>
</g>
<defs>
<clipPath id="clip0_142_207">
<rect width="32" height="32" fill="white"/>
</clipPath>
</defs>
</svg>
