<svg width="24" height="14" viewBox="0 0 24 14" fill="none" xmlns="http://www.w3.org/2000/svg">
<path d="M23.7522 9.91948V1.9366C23.7522 1.4687 23.3782 1.08947 22.9167 1.08947H22.2362V0.855694C22.2362 0.383112 21.8583 0 21.3923 0H12.3453C11.8793 0 11.5014 0.383112 11.5014 0.855694V1.08947H10.2146C9.90639 1.08947 9.6002 1.12575 9.30246 1.19729C9.00471 1.26848 8.71507 1.37459 8.43928 1.51459C8.01159 1.73124 7.6264 2.02426 7.30167 2.37986L5.50646 4.34589C5.17935 4.70391 4.77495 4.98046 4.32496 5.15399L1.98086 6.05725C1.53897 6.22734 1.16902 6.54737 0.933386 6.96257L0.587386 7.57285C0.382468 7.93363 0.289643 8.34879 0.320355 8.76399L0.397979 9.80722C0.336211 9.84214 0.279819 9.88596 0.229874 9.9366C0.0877583 10.0807 0 10.2796 0 10.4993C0 10.9388 0.351411 11.2951 0.784859 11.2951H2.54023C2.69482 12.3349 3.57995 13.1321 4.64869 13.1321C5.71744 13.1321 6.60257 12.3349 6.75716 11.2951H17.6797C17.8343 12.3349 18.7194 13.1321 19.7881 13.1321C20.8565 13.1321 21.7417 12.3349 21.8963 11.2951H23.2151C23.4318 11.2951 23.628 11.2061 23.7701 11.062C23.9122 10.9179 24 10.719 24 10.4993C24 10.2703 23.9048 10.0643 23.7522 9.91948ZM2.32111 7.7224L2.21243 8.56611C2.18678 8.76633 2.01864 8.91626 1.81948 8.91626H1.29827C1.18856 8.91626 1.08967 8.87107 1.01777 8.79852C0.946209 8.72561 0.90164 8.62531 0.90164 8.51407C0.90164 8.44116 0.921219 8.36997 0.957997 8.30734L1.4701 7.44242C1.55448 7.29937 1.71752 7.22406 1.87956 7.25349L1.99737 7.2747C2.20602 7.31238 2.34844 7.50952 2.32111 7.7224ZM5.89702 11.2951C5.75391 11.8585 5.24821 12.2764 4.64869 12.2764C4.04918 12.2764 3.54348 11.8585 3.40037 11.2951C3.37438 11.191 3.36018 11.0822 3.36018 10.9699C3.36018 10.9528 3.36052 10.9357 3.36117 10.9186C3.38379 10.3319 3.7899 9.84315 4.33137 9.70349C4.43299 9.67749 4.53932 9.66344 4.64869 9.66344C4.75806 9.66344 4.8644 9.67745 4.96602 9.70349C5.50749 9.84315 5.91357 10.3319 5.93621 10.9186C5.9369 10.9357 5.93722 10.9528 5.93722 10.9699C5.93718 11.0822 5.92301 11.191 5.89702 11.2951ZM10.1666 7.63719C10.1136 7.69095 10.0404 7.72415 9.95971 7.72415H9.05973C8.89803 7.72415 8.76705 7.59134 8.76705 7.42739C8.76705 7.34523 8.7998 7.27131 8.85281 7.21759C8.90582 7.16384 8.97907 7.13064 9.05973 7.13064H9.95971C10.1214 7.13064 10.2524 7.26345 10.2524 7.42739C10.2524 7.50952 10.2196 7.58344 10.1666 7.63719ZM11.0514 2.32919L10.6436 4.57006C10.566 4.9979 10.3284 5.3792 9.98063 5.63384C9.65521 5.87275 9.25554 5.98431 8.8555 5.94807L5.35655 5.9532C5.27114 5.95355 5.22219 5.88474 5.22219 5.81596C5.22219 5.76462 5.24952 5.71328 5.30895 5.69035C5.43045 5.64345 5.53986 5.56848 5.6283 5.47164L7.92077 2.96138C8.21648 2.63758 8.57127 2.38259 8.97266 2.20599C9.37436 2.02904 9.80984 1.94516 10.248 1.94516H10.7361C10.9366 1.94516 11.0879 2.12931 11.0514 2.32919ZM15.0574 5.67903C15.0574 5.85839 14.9139 6.00419 14.737 6.00419H12.3207C12.1435 6.00419 12 5.85839 12 5.67903V3.02915C12 2.84944 12.1435 2.70398 12.3207 2.70398H14.737C14.9139 2.70398 15.0574 2.84944 15.0574 3.02915V5.67903ZM16.0448 6.00419C15.8679 6.00419 15.7244 5.85839 15.7244 5.67903V3.02915C15.7244 2.84944 15.8679 2.70398 16.0448 2.70398H18.4611C18.6384 2.70398 18.7818 2.84944 18.7818 3.02915V5.67903C18.7818 5.85839 18.6384 6.00419 18.4611 6.00419H16.0448ZM21.0361 11.2951C20.893 11.8585 20.3877 12.2764 19.7881 12.2764C19.1883 12.2764 18.6829 11.8585 18.5398 11.2951C18.5138 11.191 18.4996 11.0822 18.4996 10.9699C18.4996 10.9528 18.5 10.9357 18.5006 10.9186C18.5232 10.3319 18.929 9.84315 19.4708 9.70349C19.5724 9.67749 19.6788 9.66344 19.7881 9.66344C19.8975 9.66344 20.0038 9.67745 20.1055 9.70349C20.6469 9.84315 21.0527 10.3319 21.0753 10.9186C21.076 10.9357 21.0763 10.9528 21.0763 10.9699C21.0763 11.0822 21.0621 11.191 21.0361 11.2951ZM19.7692 6.00419C19.5923 6.00419 19.4489 5.85839 19.4489 5.67903V3.02915C19.4489 2.84944 19.5923 2.70398 19.7692 2.70398H22.1856C22.3628 2.70398 22.5063 2.84944 22.5063 3.02915V5.67903C22.5063 5.85839 22.3628 6.00419 22.1856 6.00419H19.7692ZM23.0802 8.58837C23.0802 8.76944 22.9354 8.91626 22.7568 8.91626H22.7115C22.533 8.91626 22.3882 8.76944 22.3882 8.58837V7.22476C22.3882 7.04369 22.533 6.89687 22.7115 6.89687H22.7568C22.9354 6.89687 23.0802 7.04372 23.0802 7.22476V8.58837Z" fill="#D4E22D"/>
</svg>
