<svg width="42" height="42" viewBox="0 0 42 42" fill="none" xmlns="http://www.w3.org/2000/svg">
<path d="M25.1757 10.6755C25.1757 10.6755 4.26898 7.31779 3.28377 7.48319C2.29855 7.64859 1.14942 8.24861 0.492608 9.07619C-0.164203 9.90435 -0.164203 10.1251 0.492608 10.3447C1.14942 10.5648 20.0313 18.8201 20.0313 18.8201L13.3554 29.3877H7.82755C7.82755 29.3877 6.18553 29.2228 5.6932 29.9934C5.20031 30.7639 4.1062 32.1396 4.1062 32.1396C4.1062 32.1396 3.28547 32.9113 4.59909 33.1303C5.91271 33.351 11.8234 34.0663 11.8234 34.0663L10.7832 35.8275C10.7832 35.8275 10.1264 36.9283 10.6193 37.1485C11.1116 37.3681 11.8779 37.3133 12.2613 36.6528C12.6447 35.9929 13.4655 35.2218 13.4655 35.2218L16.365 41.1666C16.365 41.1666 16.8028 42.0467 17.6786 41.1666C18.5543 40.2854 18.8277 39.7898 18.8277 39.7898C18.8277 39.7898 19.5946 38.6342 19.0466 37.258C18.4993 35.8834 17.1857 31.7558 17.1857 31.7558C17.1857 31.7558 33.3859 13.3179 36.451 6.54895C39.515 -0.220016 36.3421 -1.54153 32.2367 1.92623C28.1314 5.39398 25.1757 10.6755 25.1757 10.6755Z" fill="#D4E22D"/>
<path d="M26.7627 23.7188L32.455 16.5637C32.455 16.5637 40.6096 32.3044 41.2114 33.3504C41.8137 34.3953 41.5942 35.9923 41.2114 36.9271C40.8285 37.8619 40.2273 39.4589 38.8031 37.587C37.3806 35.7162 26.7627 23.7188 26.7627 23.7188Z" fill="#D4E22D"/>
</svg>
