<svg width="67" height="47" viewBox="0 0 67 47" fill="none" xmlns="http://www.w3.org/2000/svg">
<path d="M25.1757 13.6023C25.1757 13.6023 4.26898 10.2446 3.28377 10.41C2.29855 10.5754 1.14942 11.1754 0.492608 12.003C-0.164203 12.8312 -0.164203 13.0519 0.492608 13.2715C1.14942 13.4916 20.0313 21.7469 20.0313 21.7469L13.3554 32.3145H7.82755C7.82755 32.3145 6.18553 32.1496 5.6932 32.9202C5.20031 33.6907 4.1062 35.0664 4.1062 35.0664C4.1062 35.0664 3.28547 35.8381 4.59909 36.0571C5.91271 36.2779 11.8234 36.9931 11.8234 36.9931L10.7832 38.7543C10.7832 38.7543 10.1264 39.8551 10.6193 40.0753C11.1116 40.2949 11.8779 40.2401 12.2613 39.5796C12.6447 38.9197 13.4655 38.1486 13.4655 38.1486L16.365 44.0934C16.365 44.0934 16.8028 44.9735 17.6786 44.0934C18.5543 43.2122 18.8277 42.7166 18.8277 42.7166C18.8277 42.7166 19.5946 41.5611 19.0466 40.1848C18.4993 38.8102 17.1857 34.6826 17.1857 34.6826C17.1857 34.6826 33.3859 16.2447 36.451 9.47577C39.515 2.7068 36.3421 1.38529 32.2367 4.85305C28.1314 8.3208 25.1757 13.6023 25.1757 13.6023Z" fill="#D4E22D"/>
<path d="M26.7627 26.6457L32.455 19.4906C32.455 19.4906 40.6096 35.2312 41.2114 36.2772C41.8137 37.3221 41.5942 38.9191 41.2114 39.8539C40.8285 40.7887 40.2273 42.3857 38.8031 40.5138C37.3806 38.6431 26.7627 26.6457 26.7627 26.6457Z" fill="#D4E22D"/>
<path d="M67 44.5V2.5C67 1.11929 65.8807 0 64.5 0C63.1193 0 62 1.11929 62 2.5V44.5C62 45.8807 63.1193 47 64.5 47C65.8807 47 67 45.8807 67 44.5Z" fill="white"/>
</svg>
