<svg width="67" height="67" viewBox="0 0 67 67" fill="none" xmlns="http://www.w3.org/2000/svg">
<g clip-path="url(#clip0_13_925)">
<path d="M57.2292 0.851563H9.77083C7.18734 0.877018 4.71685 1.91461 2.88995 3.74151C1.06305 5.56841 0.025455 8.0389 0 10.6224L0 46.9141C0.0983457 49.5856 1.04638 52.1561 2.70624 54.2518C4.3661 56.3475 6.65121 57.859 9.22925 58.5665L40.3815 65.8834C41.5671 66.1904 42.8065 66.227 44.0082 65.9908C45.2099 65.7545 46.3432 65.2513 47.3243 64.5183C48.2731 63.7416 49.0305 62.757 49.5378 61.6407C50.0452 60.5244 50.2888 59.3063 50.25 58.0807V31.0239C50.2455 28.4275 49.3922 25.9038 47.8203 23.8374C46.2483 21.771 44.0438 20.2753 41.5428 19.5781L11.323 11.2449C11.0579 11.1716 10.8099 11.0468 10.5931 10.8776C10.3763 10.7085 10.1949 10.4982 10.0593 10.259C9.92375 10.0197 9.83663 9.75607 9.80293 9.48313C9.76924 9.21019 9.78964 8.93329 9.86296 8.66823C9.93628 8.40317 10.0611 8.15515 10.2303 7.93833C10.3994 7.72151 10.6097 7.54013 10.8489 7.40455C11.0882 7.26898 11.3518 7.18186 11.6248 7.14816C11.8977 7.11447 12.1746 7.13487 12.4397 7.20819L22.3054 9.93006H22.3389H57.2292C57.7845 9.93006 58.317 10.1507 58.7097 10.5433C59.1023 10.936 59.3229 11.4685 59.3229 12.0238C59.3229 12.5791 59.1023 13.1117 58.7097 13.5043C58.317 13.897 57.7845 14.1176 57.2292 14.1176H42.6148C42.4458 14.1172 42.2824 14.1782 42.1549 14.2892C42.0275 14.4002 41.9447 14.5537 41.9218 14.7211C41.899 14.8886 41.9377 15.0586 42.0307 15.1997C42.1237 15.3408 42.2648 15.4433 42.4277 15.4883L42.6678 15.5553C45.8481 16.4385 48.6765 18.2857 50.7637 20.8427C50.83 20.9219 50.9128 20.9857 51.0064 21.0296C51.0999 21.0735 51.2019 21.0964 51.3053 21.0967H57.2292C57.7845 21.0967 58.317 21.3173 58.7097 21.71C59.1023 22.1026 59.3229 22.6352 59.3229 23.1905C59.3229 23.7458 59.1023 24.2783 58.7097 24.671C58.317 25.0636 57.7845 25.2842 57.2292 25.2842H54.3314C54.2211 25.2836 54.1122 25.3091 54.0137 25.3589C53.9153 25.4086 53.83 25.4811 53.7651 25.5703C53.7002 25.6595 53.6574 25.7629 53.6404 25.8718C53.6233 25.9808 53.6324 26.0923 53.667 26.1971C54.1802 27.7568 54.445 29.3875 54.4515 31.0295V50.4092C54.4515 50.5943 54.525 50.7718 54.6559 50.9027C54.7868 51.0336 54.9643 51.1071 55.1494 51.1071H57.2292C59.8206 51.1071 62.3058 50.0777 64.1382 48.2453C65.9706 46.4129 67 43.9277 67 41.3363V10.628C67.0007 9.34439 66.7485 8.07323 66.2578 6.88713C65.7671 5.70103 65.0475 4.62324 64.1402 3.71535C63.2328 2.80745 62.1554 2.08724 60.9696 1.59586C59.7838 1.10448 58.5128 0.851562 57.2292 0.851563ZM43.2708 42.7266C43.2708 43.8308 42.9434 44.9103 42.3299 45.8285C41.7164 46.7467 40.8444 47.4623 39.8242 47.8849C38.8039 48.3075 37.6813 48.418 36.5982 48.2026C35.5152 47.9872 34.5203 47.4554 33.7395 46.6746C32.9586 45.8937 32.4269 44.8989 32.2114 43.8158C31.996 42.7328 32.1066 41.6101 32.5292 40.5899C32.9518 39.5697 33.6674 38.6977 34.5856 38.0842C35.5037 37.4707 36.5832 37.1432 37.6875 37.1432C39.1683 37.1432 40.5884 37.7315 41.6355 38.7785C42.6826 39.8256 43.2708 41.2458 43.2708 42.7266Z" fill="#D4E22D"/>
</g>
<defs>
<clipPath id="clip0_13_925">
<rect width="67" height="67" fill="white"/>
</clipPath>
</defs>
</svg>
