<svg width="82" height="82" viewBox="0 0 82 82" fill="none" xmlns="http://www.w3.org/2000/svg">
<path d="M30.75 30.75C30.75 24.9417 35.1917 20.5 41 20.5C46.8083 20.5 51.25 24.9417 51.25 30.75C51.25 36.5583 46.8083 41 41 41C35.1917 41 30.75 36.5583 30.75 30.75ZM41 47.8333C25.2833 47.8333 20.5 59.1083 20.5 59.1083V64.9167H61.5V59.1083C61.5 59.1083 56.7167 47.8333 41 47.8333Z" fill="#D4E22D"/>
<path d="M63.2082 37.5833C67.9256 37.5833 71.7498 33.7591 71.7498 29.0417C71.7498 24.3242 67.9256 20.5 63.2082 20.5C58.4907 20.5 54.6665 24.3242 54.6665 29.0417C54.6665 33.7591 58.4907 37.5833 63.2082 37.5833Z" fill="#D4E22D"/>
<path d="M63.2083 44.4165C59.1083 44.4165 56.0333 45.4415 53.6416 47.1498C61.4999 50.9082 64.5749 57.3998 64.5749 58.0832V58.4248H78.5833V53.9832C78.5833 53.6415 74.8249 44.4165 63.2083 44.4165Z" fill="#D4E22D"/>
<path d="M63.2082 37.5833C67.9256 37.5833 71.7498 33.7591 71.7498 29.0417C71.7498 24.3242 67.9256 20.5 63.2082 20.5C58.4907 20.5 54.6665 24.3242 54.6665 29.0417C54.6665 33.7591 58.4907 37.5833 63.2082 37.5833Z" fill="#D4E22D"/>
<path d="M63.2083 44.4165C59.1083 44.4165 56.0333 45.4415 53.6416 47.1498C61.4999 50.9082 64.5749 57.3998 64.5749 58.0832V58.4248H78.5833V53.9832C78.5833 53.6415 74.8249 44.4165 63.2083 44.4165Z" fill="#D4E22D"/>
<path d="M18.7917 37.5833C23.5091 37.5833 27.3333 33.7591 27.3333 29.0417C27.3333 24.3242 23.5091 20.5 18.7917 20.5C14.0742 20.5 10.25 24.3242 10.25 29.0417C10.25 33.7591 14.0742 37.5833 18.7917 37.5833Z" fill="#D4E22D"/>
<path d="M18.7917 44.4165C22.8917 44.4165 25.9667 45.4415 28.3584 47.1498C20.5001 50.9082 17.4251 57.3998 17.4251 58.0832V58.4248H3.41675V53.9832C3.41675 53.6415 7.17508 44.4165 18.7917 44.4165Z" fill="#D4E22D"/>
</svg>
