<svg width="72" height="72" viewBox="0 0 72 72" fill="none" xmlns="http://www.w3.org/2000/svg">
<path d="M61.7064 45.0844C61.2001 44.6484 41.0064 30.0094 41.0064 30.0094C40.9782 29.9812 40.9501 29.9531 40.936 29.9391C40.1626 29.1516 40.2048 28.4766 40.1485 27.2953C40.1485 27.2953 40.022 17.5922 39.8392 14.3578C39.6563 11.1234 37.9688 9 36.0001 9C34.0313 9 32.3579 11.1094 32.1751 14.3438C31.9923 17.5781 31.8657 27.2812 31.8657 27.2812C31.8095 28.4625 31.8517 29.1375 31.0782 29.925C31.0501 29.9531 31.022 29.9813 31.0079 29.9953C31.0079 29.9953 10.8282 44.6344 10.3079 45.0703C9.7876 45.5062 9.01416 46.1672 9.01416 47.6297C9.01416 49.3453 9.52041 49.5562 10.5048 49.2609C10.5048 49.2609 30.2204 43.7062 30.9517 43.5234C31.6829 43.3406 32.0626 43.6078 32.1188 44.5781C32.1751 45.5484 32.2314 51.1031 32.2454 51.75C32.2595 52.3969 32.161 52.4109 31.8376 52.7906L27.3376 58.5281C27.0985 58.8094 26.9579 59.1609 26.9579 59.5547C26.9579 59.5547 26.9579 60.4125 26.9579 61.2984C26.9579 62.1844 27.3517 62.325 28.111 61.9875C28.8704 61.65 32.6954 59.5406 32.6954 59.5406C32.7938 59.4984 33.3423 59.2734 33.5954 59.2734C34.186 59.2734 34.7204 59.2594 34.8329 60.1453C35.0157 61.7484 35.522 63 36.0282 63C36.5345 63 37.0407 61.7484 37.2235 60.1453C37.322 59.2594 37.8704 59.2734 38.461 59.2734C38.7142 59.2734 39.2626 59.4984 39.361 59.5406C39.361 59.5406 43.186 61.65 43.9454 61.9875C44.7048 62.325 45.0985 62.1844 45.0985 61.2984C45.0985 60.4125 45.0985 59.5547 45.0985 59.5547C45.0985 59.1609 44.9579 58.7953 44.7188 58.5281L40.2188 52.7906C39.8954 52.4109 39.811 52.3828 39.811 51.75C39.811 51.1172 39.8813 45.5484 39.9376 44.5781C39.9939 43.6078 40.3735 43.3406 41.1048 43.5234C41.836 43.7062 61.5517 49.2609 61.5517 49.2609C62.5501 49.5562 63.0423 49.3453 63.0423 47.6297C63.0001 46.1813 62.2267 45.5203 61.7064 45.0844Z" fill="#D4E22D"/>
</svg>
