<svg width="74" height="59" viewBox="0 0 74 59" fill="none" xmlns="http://www.w3.org/2000/svg">
<path d="M0 44.2385L7.4 44.2432C9.45234 44.2432 11.1 42.5965 11.1 40.5522V14.7846H0V44.2385ZM5.55 36.8866C6.56172 36.8866 7.4 37.7068 7.4 38.7292C7.4 39.7365 6.56172 40.5718 5.55 40.5718C4.53828 40.5718 3.7 39.7329 3.7 38.7303C3.7 37.7047 4.53828 36.8866 5.55 36.8866ZM40.33 7.37504C39.4118 7.37504 38.5193 7.71717 37.8418 8.33471L26.4666 18.7026C26.455 18.7256 26.455 18.7487 26.4319 18.7487C24.5125 20.5463 24.5472 23.4157 26.1891 25.2018C27.6633 26.7114 30.7424 27.2322 32.6791 25.5187C32.6987 25.5014 32.7103 25.5014 32.7219 25.4899L41.958 17.0663C42.7096 16.3897 43.8947 16.4329 44.5734 17.1815C45.2672 17.93 45.2094 19.0967 44.4578 19.7881L41.4377 22.5387L58.275 36.1491C58.6074 36.4367 58.9109 36.7248 59.1855 37.0412V14.6463C54.4472 9.92633 48.03 7.28516 41.333 7.28516L40.33 7.37504ZM38.6881 25.052L35.2194 28.2198C31.7795 31.3438 26.5186 31.0419 23.4488 27.7161C20.35 24.3375 20.5928 19.0944 23.9691 16.0061L33.4272 7.37504H32.6641C25.9809 7.37504 19.5522 10.0346 14.8231 14.7385L14.8 40.5395L16.9102 40.5437L27.3742 49.9722C30.5539 52.55 35.2078 52.0603 37.7805 48.9068L39.8756 50.6629C41.7117 52.0573 44.4289 51.8729 45.932 50.044L49.5603 45.596L50.1817 46.1143C51.7716 47.3819 54.0991 47.1516 55.3848 45.5672L56.4877 44.2097C57.7734 42.6252 57.5325 40.3171 55.9449 39.0322L38.6881 25.052ZM62.9 14.7961V40.5625C62.9 42.593 64.5477 44.2558 66.4959 44.2558L74 44.25V14.7616L62.9 14.7961ZM68.45 40.5625C67.4383 40.5625 66.6 39.7276 66.6 38.7199C66.6 37.6972 67.4383 36.8773 68.45 36.8773C69.4617 36.8773 70.3 37.7047 70.3 38.7303C70.3 39.7329 69.4675 40.5625 68.45 40.5625Z" fill="#D4E22D"/>
</svg>
